<svg width="36" height="46" viewBox="0 0 36 46" fill="none" xmlns="http://www.w3.org/2000/svg">
<path d="M16 0.807652L14.3038 1.61533H12.4552C10.8667 1.61533 10.5526 1.64225 10.2834 1.77686C10.077 1.87558 9.57446 2.423 8.82063 3.36529L7.67193 4.80116L6.03863 5.59089C5.14121 6.03062 4.33354 6.45241 4.23482 6.53317C3.94765 6.8024 3.83099 7.13445 3.42715 8.88441C3.20279 9.8267 2.98741 10.6433 2.94254 10.7062C2.89767 10.769 2.36819 11.4331 1.7759 12.1779C0.995146 13.1561 0.672076 13.6407 0.627205 13.883C0.582334 14.1253 0.672076 14.6907 0.977198 16.0189L1.38104 17.8227L0.986172 19.5547C0.770792 20.5149 0.591309 21.4034 0.591309 21.529C0.591309 21.9149 0.842585 22.3008 1.96436 23.7097L3.02331 25.0289L3.45407 26.8686C3.81304 28.4481 3.91175 28.7532 4.12713 28.9776C4.26175 29.1212 5.08737 29.5788 6.00274 30.0276L7.63603 30.8083L8.75781 32.2083C9.37702 32.9711 10.0142 33.698 10.1847 33.8057C10.4808 34.0031 10.5616 34.0121 12.3923 34.0121H14.2949L15.9641 34.8198C17.2474 35.439 17.732 35.6274 18.0102 35.6274C18.2974 35.6274 18.773 35.439 20.0473 34.8198L21.7075 34.0121H23.6101C25.4408 34.0121 25.5216 34.0031 25.8177 33.8057C25.9882 33.698 26.6254 32.9801 27.2446 32.2173L28.3664 30.8263L29.9997 30.0276C30.8971 29.5878 31.7407 29.1122 31.8753 28.9776C32.0907 28.7532 32.1894 28.4391 32.5483 26.8776L32.9701 25.0289L34.0291 23.7097C35.1598 22.3008 35.4111 21.9149 35.4111 21.529C35.4111 21.4034 35.2316 20.5149 35.0162 19.5547L34.6214 17.8227L35.0252 16.0189C35.3303 14.6907 35.4201 14.1253 35.3752 13.883C35.3303 13.6407 35.0073 13.1561 34.2265 12.1779C33.6342 11.4331 33.1047 10.769 33.0599 10.7062C33.015 10.6433 32.7996 9.8267 32.5753 8.88441C32.1714 7.13445 32.0548 6.8024 31.7586 6.53317C31.6689 6.45241 30.8612 6.02165 29.9638 5.59089L28.3305 4.80116L27.1818 3.36529C26.428 2.423 25.9254 1.87558 25.719 1.77686C25.4498 1.64225 25.1357 1.61533 23.5562 1.61533H21.7075L20.0114 0.807652C18.8717 0.269203 18.2166 -2.28882e-05 18.0012 -2.28882e-05C17.7948 -2.28882e-05 17.1307 0.269203 16 0.807652ZM20.0742 5.43833C28.7074 6.91009 33.2214 16.4945 28.86 24.1046C27.6664 26.1866 25.7549 27.9725 23.5293 29.0942C20.7024 30.5122 17.1307 30.7545 14.0526 29.7314C8.69499 27.9545 5.16814 22.7944 5.47326 17.1855C5.77838 11.3164 10.095 6.45241 15.8923 5.43833C16.8974 5.25884 19.0332 5.25884 20.0742 5.43833Z" fill="#ED651F"/>
<path d="M16.0523 6.86425C12.0588 7.60013 8.74729 10.4629 7.45501 14.3038C7.02425 15.5782 6.93451 16.1974 6.92554 17.7679C6.92554 18.8717 6.96143 19.4371 7.08707 19.9935C7.54475 22.1383 8.48704 23.9241 9.94086 25.4587C12.328 27.9446 15.6305 29.201 18.9599 28.8869C20.5932 28.7343 21.6163 28.4382 23.0611 27.7023C25.6277 26.392 27.602 24.1036 28.5533 21.3396C28.9661 20.1281 29.0738 19.3473 29.0738 17.7679C29.0648 16.1884 28.9751 15.5782 28.5353 14.2859C27.261 10.4719 23.8777 7.55526 19.9381 6.86425C18.9778 6.70271 16.9676 6.70271 16.0523 6.86425ZM22.3252 15.0936L23.2854 16.1076L20.6201 18.773C18.3138 21.0793 17.9099 21.4383 17.6138 21.4921C16.9587 21.6178 16.7612 21.5101 14.76 19.9127C13.71 19.0691 12.8305 18.3781 12.8216 18.3602C12.7946 18.3332 14.4997 16.1974 14.5805 16.1705C14.6164 16.1615 15.1997 16.5923 15.8818 17.1397C16.5638 17.6781 17.1561 18.1268 17.183 18.1268C17.2099 18.1268 18.1433 17.2204 19.256 16.1076C20.3688 14.9948 21.2932 14.0885 21.3201 14.0885C21.347 14.0885 21.7957 14.5461 22.3252 15.0936Z" fill="#ED651F"/>
<path d="M2.75233 35.7064C0.760068 39.7448 0.499817 40.3101 0.499817 40.696C0.499817 41.1806 0.724171 41.6114 1.11006 41.8716C1.32544 42.0242 1.60364 42.0511 3.68565 42.087L6.01893 42.1319L7.30224 43.837C8.72913 45.7395 9.02528 45.9908 9.71629 45.919C9.9227 45.901 10.2368 45.7844 10.4252 45.6767C10.7304 45.4882 10.9458 45.0934 13.0278 40.8576C14.2841 38.3179 15.3072 36.2089 15.3072 36.173C15.3072 36.1282 15.0021 35.9487 14.6252 35.7692L13.9431 35.4461H12.2201C9.58168 35.4461 9.45604 35.3833 7.81377 33.3192C6.69199 31.9103 6.67405 31.8924 5.47151 31.3539L5.01382 31.1475L2.75233 35.7064Z" fill="#ED651F"/>
<path d="M30.1157 31.5603L29.2631 31.9641L28.1862 33.3103C26.5439 35.3833 26.4183 35.4461 23.7709 35.4461H22.0389L21.3658 35.7782C20.9979 35.9666 20.6928 36.1461 20.6928 36.182C20.6928 36.2179 21.7158 38.3268 22.9722 40.8576C25.0542 45.0934 25.2696 45.4793 25.5747 45.6767C25.7632 45.7844 26.0773 45.901 26.2837 45.919C26.9747 45.9908 27.2708 45.7395 28.6977 43.837L29.981 42.1319L32.3143 42.087C34.3963 42.0511 34.6745 42.0242 34.8899 41.8716C35.2848 41.6114 35.5002 41.1806 35.5002 40.687C35.5002 40.2922 35.2489 39.7537 33.2297 35.7064L30.9682 31.1565L30.1157 31.5603Z" fill="#ED651F"/>
</svg>
