<svg width="37" height="36" viewBox="0 0 37 36" fill="none" xmlns="http://www.w3.org/2000/svg">
<rect x="0.984375" width="36" height="36" rx="8" fill="#212121"/>
<g clip-path="url(#clip0_1_141)">
<path d="M26.432 14.9239C26.3971 14.1308 26.2688 13.5855 26.0851 13.1131C25.8955 12.6115 25.6039 12.1625 25.2219 11.7893C24.8486 11.4102 24.3967 11.1156 23.9009 10.9291C23.4257 10.7453 22.8833 10.6171 22.0902 10.5821C21.2912 10.5442 21.0375 10.5354 19.0109 10.5354C16.9843 10.5354 16.7306 10.5442 15.9345 10.5791C15.1414 10.6141 14.5962 10.7425 14.1238 10.9261C13.6222 11.1156 13.1732 11.4072 12.7999 11.7893C12.4208 12.1625 12.1264 12.6145 11.9397 13.1102C11.7559 13.5855 11.6277 14.1278 11.5927 14.921C11.5548 15.72 11.546 15.9737 11.546 18.0003C11.546 20.0269 11.5548 20.2805 11.5898 21.0766C11.6247 21.8697 11.7531 22.415 11.9368 22.8875C12.1264 23.389 12.4208 23.838 12.7999 24.2113C13.1732 24.5904 13.6251 24.8849 14.1208 25.0715C14.5962 25.2552 15.1385 25.3835 15.9317 25.4184C16.7277 25.4535 16.9814 25.4622 19.008 25.4622C21.0346 25.4622 21.2883 25.4535 22.0844 25.4184C22.8775 25.3835 23.4228 25.2552 23.8951 25.0715C24.8983 24.6836 25.6914 23.8905 26.0793 22.8875C26.2629 22.4122 26.3912 21.8697 26.4262 21.0766C26.4612 20.2805 26.47 20.0269 26.47 18.0003C26.47 15.9737 26.467 15.72 26.432 14.9239ZM25.0878 21.0183C25.0557 21.7473 24.9333 22.1409 24.8312 22.4034C24.5804 23.0537 24.0643 23.5698 23.414 23.8206C23.1516 23.9226 22.7551 24.0451 22.0289 24.0771C21.2416 24.1122 21.0055 24.1208 19.0139 24.1208C17.0222 24.1208 16.7831 24.1122 15.9987 24.0771C15.2697 24.0451 14.876 23.9226 14.6136 23.8206C14.29 23.701 13.9954 23.5114 13.7563 23.2636C13.5085 23.0215 13.319 22.7299 13.1994 22.4063C13.0973 22.1439 12.9748 21.7473 12.9428 21.0213C12.9078 20.2339 12.8991 19.9977 12.8991 18.0061C12.8991 16.0145 12.9078 15.7754 12.9428 14.991C12.9748 14.262 13.0973 13.8684 13.1994 13.6059C13.319 13.2822 13.5085 12.9878 13.7593 12.7486C14.0012 12.5007 14.2928 12.3112 14.6166 12.1917C14.879 12.0896 15.2756 11.9672 16.0016 11.9351C16.7889 11.9001 17.0252 11.8913 19.0167 11.8913C21.0113 11.8913 21.2474 11.9001 22.0319 11.9351C22.7609 11.9672 23.1545 12.0896 23.417 12.1917C23.7406 12.3112 24.0351 12.5007 24.2742 12.7486C24.5221 12.9906 24.7116 13.2822 24.8312 13.6059C24.9333 13.8684 25.0557 14.2649 25.0878 14.991C25.1228 15.7783 25.1316 16.0145 25.1316 18.0061C25.1316 19.9977 25.1228 20.231 25.0878 21.0183Z" fill="white"/>
<path d="M19.0106 14.1643C16.8937 14.1643 15.1761 15.8818 15.1761 17.9988C15.1761 20.1158 16.8937 21.8333 19.0106 21.8333C21.1276 21.8333 22.8451 20.1158 22.8451 17.9988C22.8451 15.8818 21.1276 14.1643 19.0106 14.1643ZM19.0106 20.4861C17.6372 20.4861 16.5232 19.3723 16.5232 17.9988C16.5232 16.6253 17.6372 15.5115 19.0106 15.5115C20.384 15.5115 21.4979 16.6253 21.4979 17.9988C21.4979 19.3723 20.384 20.4861 19.0106 20.4861Z" fill="white"/>
<path d="M23.8923 14.0126C23.8923 14.507 23.4915 14.9078 22.997 14.9078C22.5027 14.9078 22.1019 14.507 22.1019 14.0126C22.1019 13.5181 22.5027 13.1174 22.997 13.1174C23.4915 13.1174 23.8923 13.5181 23.8923 14.0126Z" fill="white"/>
</g>
<defs>
<clipPath id="clip0_1_141">
<rect x="11.5198" y="10.5354" width="14.9268" height="14.9268" rx="4" fill="white"/>
</clipPath>
</defs>
</svg>
