<svg width="19" height="19" viewBox="0 0 19 19" fill="none" xmlns="http://www.w3.org/2000/svg">
<path d="M18.355 8.2567C18.435 8.2567 18.4999 8.32157 18.4999 8.40158V9.92268C18.4999 10.492 18.447 11.0487 18.3456 11.5887C17.561 15.7831 13.8658 18.9529 9.43648 18.9224C4.4665 18.8881 0.489019 14.8724 0.500023 9.90239C0.510956 4.94128 4.53625 0.922729 9.49994 0.922729C11.9318 0.922729 14.1382 1.88748 15.7582 3.4546C15.8167 3.51116 15.8182 3.6044 15.7607 3.66191L13.6087 5.81385C13.5533 5.86926 13.4638 5.8707 13.407 5.81666C12.3903 4.84885 11.0146 4.25468 9.49994 4.25468C6.37207 4.25468 3.85331 6.75554 3.83208 9.88334C3.81074 13.0317 6.3566 15.5906 9.49994 15.5906C12.0503 15.5906 14.2074 13.9058 14.9187 11.5887H9.64481C9.5648 11.5887 9.49994 11.5238 9.49994 11.4438V8.40155C9.49994 8.32153 9.5648 8.25667 9.64481 8.25667H18.355V8.2567Z" fill="#2196F3"/>
<path d="M18.3551 8.2572H17.2686C17.3486 8.2572 17.4135 8.32207 17.4135 8.40208V9.92318C17.4135 10.4925 17.3606 11.0492 17.2592 11.5892C16.5106 15.5907 13.113 18.6596 8.95618 18.9069C9.11522 18.9163 9.27532 18.9218 9.43655 18.9229C13.8659 18.9534 17.5611 15.7835 18.3457 11.5892C18.4471 11.0492 18.5 10.4925 18.5 9.92318V8.40204C18.5 8.32206 18.4351 8.2572 18.3551 8.2572Z" fill="#1E88E5"/>
<path d="M4.35196 7.54901L1.61865 5.57409C3.15209 2.80059 6.10703 0.922729 9.50022 0.922729C11.9321 0.922729 14.1385 1.88748 15.7585 3.4546C15.817 3.51116 15.8185 3.6044 15.7609 3.66191L13.609 5.81385C13.5537 5.86915 13.4642 5.87087 13.4076 5.81694C12.3908 4.84896 11.0151 4.25471 9.50022 4.25471C7.21746 4.25471 5.24978 5.60414 4.35196 7.54901Z" fill="#F44336"/>
<path d="M3.56287 6.97881L4.35194 7.54894C5.17143 5.77377 6.88241 4.49528 8.91056 4.28558C8.92582 4.28392 8.94048 4.28192 8.95601 4.28044C8.77753 4.2635 8.59665 4.25464 8.4137 4.25464C6.35155 4.25464 4.55437 5.34177 3.56287 6.97881Z" fill="#E53935"/>
<path d="M14.6719 3.4546C14.7304 3.51116 14.7319 3.6044 14.6744 3.66195L12.9277 5.40861C13.095 5.53587 13.2552 5.672 13.4072 5.8167C13.464 5.87073 13.5535 5.86929 13.6089 5.81389L15.7609 3.66195C15.8184 3.6044 15.8169 3.5112 15.7584 3.4546C14.1384 1.88748 11.932 0.922729 9.50012 0.922729C9.31763 0.922729 9.13658 0.928811 8.95679 0.939534C11.173 1.07155 13.1734 2.00504 14.6719 3.4546Z" fill="#E53935"/>
<path d="M16.1022 16.0391C14.4586 17.8127 12.1089 18.9227 9.50017 18.9227C5.97662 18.9227 2.92606 16.8978 1.44873 13.9479L4.23924 12.0356C5.07662 14.1192 7.11673 15.5907 9.50017 15.5907C10.9959 15.5907 12.3562 15.0113 13.3689 14.0645L16.1022 16.0391Z" fill="#4CAF50"/>
<path d="M4.23937 12.0356L3.4165 12.5995C4.37222 14.38 6.25163 15.5907 8.41376 15.5907C8.59661 15.5907 8.77734 15.5817 8.95576 15.5648C6.80952 15.3602 5.01217 13.9586 4.23937 12.0356Z" fill="#43A047"/>
<path d="M9.50003 18.9229C12.1087 18.9229 14.4585 17.8129 16.102 16.0393L15.4326 15.5557C13.8894 17.4762 11.5743 18.7503 8.95813 18.9065C9.13743 18.9172 9.31806 18.9229 9.50003 18.9229Z" fill="#43A047"/>
<path d="M3.83211 9.92342C3.83211 10.6702 3.9766 11.3833 4.23918 12.0363L1.44863 13.9486C0.841663 12.7375 0.500122 11.3703 0.500122 9.92342C0.500122 8.34618 0.905753 6.86379 1.61851 5.57483L4.35182 7.54976C4.01826 8.27154 3.83211 9.07595 3.83211 9.92342Z" fill="#FFC107"/>
<path d="M3.41634 12.5998L4.2392 12.036C3.97662 11.383 3.83213 10.6698 3.83213 9.92304C3.83213 9.07557 4.01828 8.27116 4.35184 7.54937L3.56277 6.97925C3.05037 7.82528 2.75298 8.81805 2.74574 9.88374C2.73906 10.8665 2.98259 11.7918 3.41634 12.5998Z" fill="#FFB300"/>
</svg>
