<svg width="30" height="26" viewBox="0 0 30 26" fill="none" xmlns="http://www.w3.org/2000/svg">
<path d="M29.7052 7.20563C29.0865 4.27511 26.7726 0.802732 23.1542 0.104085C22.2655 -0.0583304 21.3524 -0.0304071 20.4752 0.186012C19.5981 0.40243 18.7768 0.802423 18.0656 1.35959C17.257 1.96595 16.6011 2.75278 16.1502 3.6574C15.6994 4.56202 15.466 5.55943 15.4688 6.57017C15.4715 7.58091 15.7102 8.57704 16.166 9.47921C16.6217 10.3814 17.2818 11.1647 18.0937 11.7666C18.9285 12.4172 19.9117 12.8504 20.9552 13.0273C21.9986 13.2042 23.0697 13.1192 24.0722 12.78C24.1208 12.7624 24.173 12.7572 24.2242 12.7648C24.2753 12.7724 24.3238 12.7926 24.3652 12.8236C24.4075 12.8555 24.4413 12.8974 24.4635 12.9455C24.4857 12.9937 24.4955 13.0466 24.4922 13.0995C24.1995 19.5774 18.39 22.1099 17.2282 22.552C17.0462 22.6211 16.8931 22.7501 16.7941 22.9178C16.6952 23.0855 16.6563 23.2819 16.6838 23.4747C16.6838 23.4747 16.8319 24.5624 16.8321 24.5638C16.8521 24.6919 16.9003 24.8139 16.9733 24.9211C17.0463 25.0282 17.1422 25.1178 17.2541 25.1832C17.366 25.2487 17.4911 25.2884 17.6203 25.2994C17.7495 25.3105 17.8795 25.2926 18.0009 25.2472C31.2584 19.8652 30.3113 10.0773 29.7052 7.20563ZM17.7478 24.3378L17.621 23.4055C19.0043 22.8677 25.1149 20.1007 25.4294 13.1419C25.44 12.9367 25.3999 12.732 25.3127 12.5459C25.2255 12.3598 25.0939 12.198 24.9295 12.0747C24.7651 11.9515 24.5728 11.8705 24.3698 11.839C24.1667 11.8075 23.959 11.8265 23.7649 11.8941C22.9088 12.1823 21.9945 12.2534 21.1041 12.1011C20.2137 11.9488 19.375 11.5779 18.6633 11.0216C17.9657 10.5069 17.3984 9.83612 17.0066 9.06288C16.6148 8.28964 16.4095 7.43543 16.407 6.5686C16.4045 5.70178 16.605 4.8464 16.9923 4.07093C17.3797 3.29546 17.9432 2.62142 18.6377 2.10276C19.2434 1.62635 19.9433 1.28391 20.6912 1.09807C21.439 0.912223 22.2178 0.887209 22.9761 1.02468C26.1747 1.64247 28.2306 4.76212 28.7874 7.39945C29.3539 10.0839 30.2274 19.2218 17.748 24.3381L17.7478 24.3378Z" fill="#212121"/>
<path d="M20.4596 2.80774C20.4021 2.82985 20.3496 2.86307 20.305 2.90549C20.2603 2.94791 20.2245 2.9987 20.1995 3.05497C20.1745 3.11124 20.1608 3.17188 20.1593 3.23343C20.1577 3.29498 20.1683 3.35623 20.1904 3.41369C20.2125 3.47116 20.2458 3.5237 20.2882 3.56832C20.3306 3.61295 20.3814 3.64878 20.4377 3.67378C20.4939 3.69877 20.5546 3.71244 20.6161 3.714C20.6777 3.71556 20.7389 3.70498 20.7964 3.68286C20.814 3.67583 22.5415 3.03015 23.5462 4.273C23.5849 4.32091 23.6327 4.36072 23.6868 4.39017C23.7408 4.41961 23.8002 4.43812 23.8614 4.44463C23.9227 4.45113 23.9846 4.44552 24.0437 4.42809C24.1027 4.41067 24.1578 4.38178 24.2057 4.34308C24.2536 4.30437 24.2934 4.25661 24.3229 4.20253C24.3523 4.14844 24.3708 4.08908 24.3773 4.02784C24.3838 3.96659 24.3782 3.90467 24.3608 3.8456C24.3434 3.78653 24.3145 3.73147 24.2758 3.68357C22.8464 1.91597 20.5564 2.77048 20.4596 2.80774ZM7.68544 0.104085C6.7967 -0.0583304 5.88363 -0.0304071 5.00648 0.186012C4.12933 0.40243 3.30806 0.802423 2.59687 1.35959C1.78821 1.96595 1.13233 2.75278 0.681487 3.6574C0.230644 4.56202 -0.00270771 5.55943 2.3705e-05 6.57017C0.00275512 7.58091 0.241494 8.57704 0.69722 9.47921C1.15295 10.3814 1.81307 11.1647 2.62499 11.7666C3.45974 12.4172 4.44296 12.8504 5.48642 13.0273C6.52988 13.2042 7.60093 13.1192 8.60345 12.78C8.65207 12.7624 8.7043 12.7572 8.75544 12.7648C8.80658 12.7724 8.85502 12.7926 8.89641 12.8236C8.9388 12.8555 8.9726 12.8974 8.99477 12.9455C9.01694 12.9937 9.0268 13.0466 9.02344 13.0995C8.73071 19.5774 2.92123 22.1099 1.75947 22.552C1.57743 22.6211 1.42433 22.7501 1.32538 22.9178C1.22643 23.0855 1.18751 23.2819 1.21504 23.4747C1.21504 23.4747 1.36316 24.5624 1.36339 24.5638C1.38332 24.6919 1.43153 24.8139 1.50452 24.9211C1.57751 25.0282 1.67345 25.1178 1.78537 25.1832C1.89729 25.2487 2.02239 25.2884 2.15156 25.2994C2.28074 25.3105 2.41076 25.2926 2.53218 25.2472C15.7896 19.8652 14.8425 10.0773 14.2365 7.20563C13.6177 4.27511 11.3038 0.802732 7.68544 0.104085ZM2.27906 24.3381L2.1518 23.4055C3.53527 22.8677 9.64591 20.1007 9.96043 13.1419C9.97097 12.9367 9.93089 12.732 9.84371 12.5459C9.75653 12.3598 9.62493 12.198 9.4605 12.0747C9.29607 11.9515 9.10385 11.8705 8.90078 11.839C8.69771 11.8075 8.49 11.8265 8.29596 11.8941C7.4398 12.1823 6.52551 12.2534 5.6351 12.1011C4.74469 11.9488 3.906 11.5779 3.19427 11.0216C2.49676 10.5069 1.92942 9.83612 1.53763 9.06288C1.14584 8.28964 0.94049 7.43543 0.938007 6.5686C0.935524 5.70178 1.13598 4.8464 1.52333 4.07093C1.91068 3.29546 2.47418 2.62142 3.16872 2.10276C3.77442 1.62635 4.47432 1.28391 5.22219 1.09807C5.97005 0.912223 6.74884 0.887209 7.50708 1.02468C10.7057 1.64247 12.7616 4.76212 13.3184 7.39945C13.8849 10.0839 14.7584 19.2218 2.27906 24.3381Z" fill="#212121"/>
<path d="M4.99186 2.80922C4.9344 2.83133 4.88186 2.86454 4.83723 2.90696C4.79261 2.94938 4.75677 3.00018 4.73178 3.05645C4.70678 3.11271 4.69312 3.17335 4.69156 3.2349C4.69 3.29645 4.70058 3.35771 4.72269 3.41517C4.7448 3.47263 4.77802 3.52518 4.82044 3.5698C4.86286 3.61443 4.91365 3.65026 4.96992 3.67525C5.02619 3.70025 5.08683 3.71391 5.14838 3.71547C5.20993 3.71703 5.27118 3.70645 5.32864 3.68434C5.34622 3.67731 7.07374 3.03163 8.07847 4.27448C8.15846 4.36848 8.27149 4.42816 8.39423 4.44121C8.51697 4.45425 8.64002 4.41965 8.73798 4.34455C8.78588 4.30587 8.82568 4.25813 8.85513 4.20406C8.88457 4.14999 8.90308 4.09065 8.90958 4.02943C8.91609 3.96821 8.91047 3.90631 8.89305 3.84725C8.87563 3.7882 8.84675 3.73316 8.80805 3.68528C7.37865 1.91745 5.08865 2.77195 4.99186 2.80922Z" fill="#212121"/>
</svg>
