<svg width="30" height="27" viewBox="0 0 30 27" fill="none" xmlns="http://www.w3.org/2000/svg">
<path d="M0.294797 19.0287C0.913525 21.9593 3.22743 25.4316 6.84581 26.1303C7.73455 26.2927 8.64762 26.2648 9.52477 26.0484C10.4019 25.8319 11.2232 25.432 11.9344 24.8748C12.743 24.2684 13.3989 23.4816 13.8498 22.577C14.3006 21.6724 14.534 20.6749 14.5312 19.6642C14.5285 18.6535 14.2898 17.6573 13.834 16.7552C13.3783 15.853 12.7182 15.0697 11.9063 14.4677C11.0715 13.8171 10.0883 13.3839 9.04483 13.2071C8.00137 13.0302 6.93032 13.1152 5.9278 13.4543C5.87918 13.4719 5.82696 13.4772 5.77581 13.4696C5.72467 13.4619 5.67623 13.4417 5.63484 13.4107C5.59246 13.3789 5.55865 13.337 5.53648 13.2889C5.51431 13.2407 5.50446 13.1878 5.50782 13.1349C5.80054 6.65699 11.61 4.12443 12.7718 3.68241C12.9538 3.6133 13.1069 3.48428 13.2059 3.31658C13.3048 3.14887 13.3437 2.95248 13.3162 2.75971C13.3162 2.75971 13.1681 1.67201 13.1679 1.67061C13.1479 1.5425 13.0997 1.42043 13.0267 1.31328C12.9537 1.20613 12.8578 1.11658 12.7459 1.05114C12.634 0.985693 12.5089 0.945999 12.3797 0.93494C12.2505 0.923879 12.1205 0.941728 11.9991 0.987194C-1.25835 6.36919 -0.311276 16.157 0.294797 19.0287ZM12.2522 1.89654L12.379 2.82885C10.9957 3.36672 4.8851 6.13365 4.57058 13.0925C4.56004 13.2977 4.60013 13.5024 4.68731 13.6885C4.77449 13.8746 4.90609 14.0364 5.07052 14.1596C5.23495 14.2829 5.42716 14.3638 5.63024 14.3953C5.83331 14.4268 6.04101 14.4079 6.23506 14.3402C7.09121 14.0521 8.0055 13.981 8.89591 14.1333C9.78633 14.2856 10.625 14.6565 11.3368 15.2128C12.0343 15.7275 12.6016 16.3983 12.9934 17.1715C13.3852 17.9447 13.5905 18.7989 13.593 19.6658C13.5955 20.5326 13.395 21.388 13.0077 22.1634C12.6203 22.9389 12.0568 23.613 11.3623 24.1316C10.7566 24.608 10.0567 24.9505 9.30883 25.1363C8.56097 25.3222 7.78218 25.3472 7.02393 25.2097C3.8253 24.5919 1.76943 21.4722 1.21258 18.8349C0.646112 16.1505 -0.227371 7.01253 12.252 1.8963L12.2522 1.89654Z" fill="#212121"/>
<path d="M9.54041 23.4266C9.59787 23.4045 9.65041 23.3713 9.69504 23.3289C9.73966 23.2865 9.77549 23.2357 9.80049 23.1794C9.82548 23.1231 9.83915 23.0625 9.84071 23.0009C9.84227 22.9394 9.83169 22.8781 9.80958 22.8207C9.78746 22.7632 9.75425 22.7107 9.71183 22.666C9.66941 22.6214 9.61861 22.5856 9.56235 22.5606C9.50608 22.5356 9.44544 22.5219 9.38389 22.5204C9.32234 22.5188 9.26108 22.5294 9.20362 22.5515C9.18604 22.5585 7.45853 23.2042 6.4538 21.9614C6.41509 21.9135 6.36733 21.8737 6.31325 21.8442C6.25916 21.8148 6.1998 21.7963 6.13856 21.7897C6.07731 21.7832 6.01539 21.7889 5.95632 21.8063C5.89725 21.8237 5.84219 21.8526 5.79429 21.8913C5.74638 21.93 5.70657 21.9778 5.67712 22.0318C5.64767 22.0859 5.62917 22.1453 5.62266 22.2065C5.61615 22.2678 5.62177 22.3297 5.6392 22.3888C5.65662 22.4478 5.68551 22.5029 5.72421 22.5508C7.15362 24.3184 9.44361 23.4639 9.54041 23.4266ZM22.3146 26.1303C23.2033 26.2927 24.1164 26.2648 24.9935 26.0484C25.8707 25.8319 26.6919 25.432 27.4031 24.8748C28.2118 24.2684 28.8677 23.4816 29.3185 22.577C29.7694 21.6724 30.0027 20.6749 30 19.6642C29.9972 18.6535 29.7585 17.6573 29.3028 16.7552C28.8471 15.853 28.1869 15.0697 27.375 14.4677C26.5403 13.8171 25.557 13.3839 24.5136 13.2071C23.4701 13.0302 22.3991 13.1152 21.3966 13.4543C21.3479 13.4719 21.2957 13.4772 21.2446 13.4696C21.1934 13.4619 21.145 13.4417 21.1036 13.4107C21.0612 13.3789 21.0274 13.337 21.0052 13.2889C20.9831 13.2407 20.9732 13.1878 20.9766 13.1349C21.2693 6.65699 27.0788 4.12443 28.2405 3.68241C28.4226 3.6133 28.5757 3.48428 28.6746 3.31658C28.7736 3.14887 28.8125 2.95248 28.785 2.75971C28.785 2.75971 28.6368 1.67201 28.6366 1.67061C28.6167 1.5425 28.5685 1.42043 28.4955 1.31328C28.4225 1.20613 28.3266 1.11658 28.2146 1.05114C28.1027 0.985693 27.9776 0.945999 27.8484 0.93494C27.7193 0.923879 27.5892 0.941728 27.4678 0.987194C14.2104 6.36919 15.1575 16.157 15.7635 19.0287C16.3823 21.9593 18.6962 25.4316 22.3146 26.1303ZM27.7209 1.8963L27.8482 2.82885C26.4647 3.36672 20.3541 6.13365 20.0396 13.0925C20.029 13.2977 20.0691 13.5024 20.1563 13.6885C20.2435 13.8746 20.3751 14.0364 20.5395 14.1596C20.7039 14.2829 20.8961 14.3638 21.0992 14.3953C21.3023 14.4268 21.51 14.4079 21.704 14.3402C22.5602 14.0521 23.4745 13.981 24.3649 14.1333C25.2553 14.2856 26.094 14.6565 26.8057 15.2128C27.5032 15.7275 28.0706 16.3983 28.4624 17.1715C28.8542 17.9447 29.0595 18.7989 29.062 19.6658C29.0645 20.5326 28.864 21.388 28.4767 22.1634C28.0893 22.9389 27.5258 23.613 26.8313 24.1316C26.2256 24.608 25.5257 24.9505 24.7778 25.1363C24.03 25.3222 23.2512 25.3472 22.4929 25.2097C19.2943 24.5919 17.2384 21.4722 16.6816 18.8349C16.1151 16.1505 15.2416 7.01253 27.7209 1.8963Z" fill="#212121"/>
<path d="M25.0081 23.4252C25.0656 23.403 25.1181 23.3698 25.1628 23.3274C25.2074 23.285 25.2432 23.2342 25.2682 23.1779C25.2932 23.1217 25.3069 23.061 25.3084 22.9995C25.31 22.9379 25.2994 22.8767 25.2773 22.8192C25.2552 22.7617 25.222 22.7092 25.1796 22.6646C25.1371 22.6199 25.0863 22.5841 25.0301 22.5591C24.9738 22.5341 24.9132 22.5205 24.8516 22.5189C24.7901 22.5173 24.7288 22.5279 24.6714 22.55C24.6538 22.5571 22.9263 23.2027 21.9215 21.9599C21.8415 21.8659 21.7285 21.8062 21.6058 21.7932C21.483 21.7801 21.36 21.8147 21.262 21.8898C21.2141 21.9285 21.1743 21.9762 21.1449 22.0303C21.1154 22.0844 21.0969 22.1437 21.0904 22.2049C21.0839 22.2662 21.0895 22.3281 21.1069 22.3871C21.1244 22.4462 21.1533 22.5012 21.1919 22.5491C22.6213 24.3169 24.9113 23.4624 25.0081 23.4252Z" fill="#212121"/>
</svg>
