<svg width="35" height="42" viewBox="0 0 35 42" fill="none" xmlns="http://www.w3.org/2000/svg">
<path d="M16.5936 0.584671C16.0795 0.801556 15.8466 0.962212 15.0915 1.65303C14.4328 2.2555 13.4608 2.97845 12.6817 3.46042C10.3521 4.89026 7.92623 5.62928 4.60868 5.93452C3.94196 5.99879 3.37163 6.09518 3.02622 6.21567C1.62851 6.69764 0.576208 7.8624 0.190633 9.34847C0.0862065 9.73405 0.0540752 10.5213 0.0139111 13.1641C-0.0503514 17.5259 0.102272 20.1446 0.592274 23.0685C1.66064 29.4626 4.58458 34.3225 9.46854 37.8007C11.8382 39.4876 16.2322 41.5199 17.5014 41.5199C18.2243 41.5199 20.1522 40.7889 22.2809 39.7125C24.522 38.5799 26.0643 37.5276 27.7593 35.9853C30.5627 33.4389 32.6673 29.9205 33.7598 25.9603C34.7237 22.4661 35.0691 18.8272 34.9888 13.0436C34.9486 10.5052 34.9165 9.72601 34.8121 9.34847C34.4265 7.8624 33.3742 6.69764 31.9765 6.21567C31.6311 6.09518 31.0607 5.99879 30.394 5.93452C25.8715 5.52485 22.8994 4.2878 19.7505 1.50844C18.8589 0.721226 18.3127 0.448112 17.5817 0.415981C17.172 0.391884 16.9632 0.432045 16.5936 0.584671ZM19.0276 10.8426C22.9717 11.3888 26.3133 14.369 27.3737 18.2649C27.8316 19.9438 27.8396 21.8957 27.4058 23.5264C26.4499 27.1412 23.6866 29.9044 20.0718 30.8604C18.4974 31.2861 16.5053 31.2861 14.9309 30.8604C11.3161 29.9044 8.55279 27.1412 7.59689 23.5264C7.17115 21.952 7.17115 19.9598 7.59689 18.3854C8.74558 14.0477 12.513 10.9711 16.9792 10.7301C17.5254 10.698 18.3046 10.7462 19.0276 10.8426Z" fill="#ED651F"/>
<path d="M17.0997 13.148C15.1317 13.2604 13.485 13.9834 12.0632 15.357C10.4968 16.8672 9.70151 18.7549 9.70151 20.9559C9.70151 23.1569 10.4968 25.0446 12.0632 26.5547C13.6055 28.0488 15.3646 28.7557 17.5014 28.7557C19.6381 28.7557 21.3973 28.0488 22.9396 26.5547C24.506 25.0446 25.3012 23.1488 25.3012 20.9559C25.3012 18.7629 24.498 16.8591 22.9396 15.357C21.333 13.8147 19.2445 13.0195 17.0997 13.148ZM21.8391 17.566C22.4014 17.8472 22.6584 18.6183 22.3693 19.1726C22.305 19.2931 20.8993 20.731 19.2525 22.3777C16.0555 25.5506 16.0796 25.5346 15.4289 25.4141C15.1879 25.3739 14.9068 25.1329 13.8625 24.1047C13.1637 23.4059 12.5371 22.7472 12.4728 22.6267C12.1595 22.0242 12.4648 21.2451 13.1155 20.996C13.734 20.7551 13.9669 20.8595 14.8505 21.727C15.2763 22.1447 15.6538 22.4821 15.702 22.4821C15.7422 22.4821 16.8587 21.3977 18.1842 20.0642C19.5096 18.7308 20.7065 17.5982 20.835 17.5339C21.1643 17.3893 21.5017 17.3973 21.8391 17.566Z" fill="#ED651F"/>
</svg>
