<svg width="37" height="38" viewBox="0 0 37 38" fill="none" xmlns="http://www.w3.org/2000/svg">
<path d="M34.4321 0.50766C29.1951 0.927197 23.9654 2.98147 19.459 6.38116C18.4174 7.16236 17.7953 7.7121 16.5656 8.92007L15.4806 9.99061L14.6126 10.034C10.316 10.251 5.70113 12.2619 2.54738 15.2927C1.94701 15.8713 1.91808 15.9147 1.91808 16.2041C1.91808 16.4355 1.96871 16.5657 2.12061 16.7321L2.31591 16.9563L5.41179 17.4048L8.50044 17.8533L8.07367 18.3379C7.58904 18.8876 7.495 19.1408 7.66137 19.4953C7.8205 19.8208 17.7375 29.7232 18.0051 29.8245C18.3378 29.9475 18.591 29.8462 19.119 29.3905L19.6037 28.9637L20.0377 31.98C20.3487 34.1356 20.5078 35.0615 20.5946 35.1917C20.7682 35.4521 21.1588 35.575 21.4843 35.4665C21.9328 35.3219 23.2276 33.8101 24.2836 32.2115C26.0992 29.4701 27.2638 25.9764 27.4229 22.8443L27.4663 21.9763L28.5369 20.8913C30.1427 19.2566 31.0324 18.1715 32.2114 16.3921C35.206 11.9002 36.9999 6.41009 36.9999 1.7735C36.9999 0.992298 36.8697 0.659561 36.5225 0.529362C36.3561 0.46426 35.1192 0.449795 34.4321 0.50766ZM27.1842 7.29256C28.6815 7.61083 29.8461 8.7754 30.1644 10.2727C30.2222 10.5403 30.2729 10.8948 30.2729 11.0539C30.2729 12.421 29.3687 13.8822 28.1607 14.4753C27.6472 14.7285 26.8804 14.9238 26.403 14.9238C25.0432 14.9238 23.5748 14.0124 22.9816 12.8116C22.7285 12.2981 22.5332 11.5313 22.5332 11.0539C22.5332 10.0991 22.9816 9.05027 23.6905 8.3414C24.6381 7.39383 25.8967 7.01769 27.1842 7.29256Z" fill="#ED651F"/>
<path d="M6.87351 25.2026C5.99104 25.3328 5.1592 25.7089 4.41416 26.3238C3.43766 27.1194 2.25862 29.6656 0.717913 34.2877C-0.106691 36.7615 -0.135625 36.9134 0.204344 37.2534C0.544312 37.5934 0.703446 37.5644 3.15556 36.7471C7.78491 35.2064 10.3383 34.0201 11.134 33.0436C12.747 31.0761 12.6819 28.4287 10.9748 26.6276C10.2443 25.8536 9.26775 25.3545 8.16828 25.1954C7.59685 25.1158 7.47388 25.1158 6.87351 25.2026Z" fill="#ED651F"/>
</svg>
